<?xml version="1.0" encoding="utf-8"?>
<!-- Generator: Adobe Illustrator 22.0.1, SVG Export Plug-In . SVG Version: 6.00 Build 0)  -->
<svg version="1.1" id="Layer_1" xmlns="http://www.w3.org/2000/svg" xmlns:xlink="http://www.w3.org/1999/xlink" x="0px" y="0px"
	 viewBox="0 0 500 500" style="enable-background:new 0 0 500 500;" xml:space="preserve">
<style type="text/css">
	.st0{fill:#FFFFFF;}
</style>
<g>
	<g>
		<path class="st0" d="M334.9,267.5c-7.5-27.4-14.2-52.2-20.3-75.9c-1.3-5-4.4-6.4-7-7.1c-7.2-1.9-14.4-3.8-21.6-5.6
			c-17-4.4-34.5-9-51.7-13.7c-6-1.6-10.2-0.4-14.7,4.2c-15,15.4-31.6,32.1-52.4,52.7c-4.3,4.3-3.8,8.6-2.7,12.6
			c5.9,21.1,12.7,45.6,18.9,69.9c1.9,7.5,5.7,11.4,12.7,13.2c16.2,4.1,32.7,8.5,48.6,12.7l9.1,2.4c3.3,0.9,6.6,1.9,9.8,2.9
			c1.5,0.5,3,0.9,4.6,1.4l0.3,0.1c0.7,0.1,1.3,0.2,1.9,0.2c4,0,6.3-2.7,7.8-4.5c0.4-0.5,0.7-0.9,1.1-1.2l9-9.1
			c14-14.1,28.5-28.7,42.9-42.9C334,277,336.6,273.4,334.9,267.5z M315.1,273.8l-0.6,0.6c-6,6.1-12.1,12.2-18.1,18.1
			c-8.2,8.2-16.8,16.7-25.1,25.2c-2.2,2.3-4,2.7-7.5,1.8c-20.1-5.6-40.6-11.1-60.9-16.5c-3.1-0.8-4.2-1.6-5-5.3
			c-4.8-20.1-10.3-40.9-16.5-61.7c-1.2-3.9-0.7-5.3,1.4-7.3c16.9-17,32-32.3,46.1-46.9c0.9-0.9,1.7-1.4,3-1.4c0.7,0,1.5,0.1,2.6,0.4
			l11.7,3.3c16.1,4.5,32.7,9.1,49.1,13.5c4.3,1.2,5.7,2.7,6.8,7.8c3,13.5,6.7,27,10.3,40.1c1.5,5.3,3,10.7,4.4,16
			c0.4,1.6,0.8,3.2,1.1,4.4c0.1,0.4,0.2,0.7,0.2,1C318.8,270.1,317.6,271.4,315.1,273.8z"/>
	</g>
	<g>
		<path class="st0" d="M162,326.9c-9.2,8.9-18.4,18.2-27.4,27.1c-6.1,6.2-12.5,12.6-18.8,18.8c-0.3,0.3-0.6,0.8-1,1.3
			c-1.2,1.6-2.9,4.1-5.9,4.4c-0.2,0-0.4,0-0.6,0c-1.9,0-3.8-0.9-5.8-2.8c-2.3-2.2-3.5-4.3-3.5-6.6c0-3.3,2.3-5.5,4.3-7.5l0.7-0.6
			c7.8-7.6,15.6-15.5,23.2-23.1c6.3-6.3,12.8-12.9,19.3-19.3c2.7-2.7,3.3-4.3,2.4-7.3c-5.6-19.5-10.9-39.5-15.6-57.1l0-0.1
			c-0.9-3.5-1.3-4.3-3.3-4.8c-12.9-3.4-25.9-7-38.5-10.4c-6.7-1.8-13.4-3.7-20.1-5.5c-0.4-0.1-1-0.1-1.2-0.1
			c1.4-0.1-2.6-0.2-2.6-0.2c-1.7,0.1-2.6,1-3.9,2.5c-0.4,0.5-0.8,0.9-1.2,1.4c-4.7,4.6-9.4,9.4-13.9,14
			c-8.4,8.5-17.1,17.3-25.8,25.7c-0.2,0.2-0.7,1-1,1.5c-1.2,1.9-3,4.9-6.3,5.4c-2.4,0.3-4.7-0.7-7.2-3c-2.6-2.4-3.7-4.8-3.5-7.1
			c0.3-3.3,2.9-5.2,4.9-6.6c0.6-0.4,1.3-0.9,1.6-1.2c6.8-7.1,13.8-14.2,20.6-21.1c7.7-7.9,15.7-16,23.4-24.1
			c4.3-4.5,8.7-6.9,16.6-4.6c22,6.5,44.3,12.3,63.3,17.1c7.5,1.9,11.5,6,13.5,13.8c4.4,17.6,9.4,35.3,14.2,52.4
			c1.2,4.1,2.3,8.3,3.5,12.4C168,317.8,166.6,322.4,162,326.9L162,326.9z"/>
	</g>
	<g>
		<path class="st0" d="M366.3,115.3c-0.5,0.3-1,0.7-1.2,0.9c-7.8,8-15.9,16-23.7,23.8c-7.6,7.5-15.4,15.3-23,23.1
			c-2.7,2.8-5.6,4.1-9,4.1c-1.3,0-2.8-0.2-4.3-0.6c-25.4-6.8-48.1-12.8-69.3-18.4c-6-1.6-7.3-6.4-7.9-8.9l-2.6-10.2
			c-4.9-19-10-38.6-15.4-57.7c-1.8-6.5-0.6-11.3,4-15.9C232.1,37.2,247.1,22,261,7.6c6.3-6.5,11.3-1.7,13.1,0.1
			c1.9,1.8,2.8,3.6,2.9,5.6c0,2.9-2,4.8-3.5,6.3c-0.2,0.2-0.4,0.4-0.6,0.5c-3.9,3.9-7.7,7.8-11.6,11.6
			c-10.1,10.1-20.6,20.6-31.1,30.7c-3.4,3.3-4.2,5.8-3.1,10c2.3,8.7,4.6,17.6,6.9,26.1c2.5,9.5,5,19.4,7.6,29
			c0.9,3.3,1.7,4.9,4.3,5.6c14.2,3.7,28.6,7.7,42.6,11.6c5.7,1.6,11.3,3.1,17,4.7c0.2,0.1,0.5,0.1,0.9,0.1c0.3,0,0.6,0.1,0.9,0.1
			l0.4,0.1c0.4,0.1,0.5,0.2,1.9-1.5c0.4-0.4,0.8-0.9,1.2-1.3l12.8-12.9c9.9-9.9,19.8-19.8,29.6-29.8l0.2-0.2
			c2.2-2.2,4.6-4.6,8.1-4.6c0,0,0,0,0,0c2.2,0,4.4,1.1,6.4,3.2c2,2.1,3,4.3,2.8,6.4C370.6,112.3,368,114.1,366.3,115.3L366.3,115.3z
			"/>
	</g>
	<g>
		<path class="st0" d="M489.5,234.1c-0.6,0.4-1.4,0.9-1.7,1.2c-12.7,13-25.7,26.1-38.3,38.8l-6.9,6.9c-0.4,0.4-0.7,0.8-1.1,1.2
			c-1.6,1.7-4,4.4-7.2,4.4c-0.8,0-1.7-0.2-2.6-0.6l-18.2-5c-18.6-5.1-36.1-9.9-53.9-14.8c-6.2-1.7-7.6-6.9-8.4-9.7
			c-6.9-25.7-13-48.2-18.8-68.9c-1.7-6.2,1-9.9,3.5-12.4c17.8-17.6,33.6-33.3,48.2-48.1c1.6-1.7,4.1-4.2,7.4-4.1
			c2.9,0.1,5.1,2.1,6.5,3.5c1.9,2.1,2.8,4.1,2.6,6.1c-0.2,2.8-2.2,4.4-3.6,5.6c-0.4,0.3-0.8,0.7-1.2,1c-5.9,5.8-11.9,11.9-17.7,17.7
			c-8.3,8.4-17,17-25.6,25.4c-2.7,2.6-2.6,5.2-1.4,9.9c2.9,11.4,6,23,9,34.1c1.9,7,3.8,14,5.6,21c0.8,3.2,2.1,4.3,5.6,5.2
			c19.4,4.9,39.2,10.6,56.7,15.6c3,0.8,4.6,0.3,7.3-2.4c15.7-16.2,28.8-29.3,41.2-41.3c0.3-0.2,0.7-1,1.1-1.6c1.3-2.1,3-4.9,6.4-5.3
			c2.3-0.3,4.7,0.7,7.2,3.1c2.6,2.5,3.8,4.9,3.5,7.2C494.2,231.1,491.5,232.8,489.5,234.1L489.5,234.1z"/>
	</g>
	<g>
		<path class="st0" d="M286.9,443.5c-0.4,0.4-0.8,0.8-1.2,1.2c-17.3,17.7-32.9,33.6-47.7,48.8c-1.8,1.8-3.8,3.5-6.5,3.5c0,0,0,0,0,0
			c-2,0-3.9-1-5.9-2.9c-2.1-2.1-3.1-4.2-3-6.4c0-2.9,1.8-5.1,3.8-7c5.6-5.5,11.3-11.2,16.8-16.7c8.5-8.4,17.2-17.1,25.9-25.5
			c3.2-3.1,4-4.7,2.8-8.8c-5.2-18-9.8-36.5-14.3-55.4c-1.1-4.5-2.5-6.1-6.2-7c-17.3-4.4-37.7-9.7-57.7-15.7c-2.5-0.7-3.1-0.1-5.1,2
			c-0.3,0.3-0.6,0.6-0.9,0.9c-5.5,5.5-11,11.1-16.6,16.6c-8.3,8.3-16.8,16.9-25.2,25.3c-0.4,0.4-0.8,0.8-1.2,1.3
			c-1.5,1.8-3.6,4.2-6.9,4.3c-2.2,0.1-4.4-0.9-6.5-3.1c-2.1-2.1-3.1-4.2-2.9-6.3c0.2-3.1,2.5-5,4.2-6.4c0.5-0.4,0.9-0.7,1.2-1
			c6.3-6.4,12.7-12.8,18.9-19c8.7-8.7,17.6-17.7,26.3-26.6c5-5.2,9.9-6.5,16.7-4.5c19.5,5.7,39.5,11,58.9,16l5.4,1.4
			c7,1.8,10.5,5.3,12.2,12.2c3.6,14.8,7.8,29.7,11.8,44.1c1.8,6.3,3.5,12.5,5.2,18.8c0.4,1.4,0.6,2.7,0.9,4.8
			c0.2,1.1,0.4,2.4,0.7,4.1C291.5,439,289.5,440.9,286.9,443.5L286.9,443.5z"/>
	</g>
	<g>
		<path class="st0" d="M431.1,315.5c-2.4,8-8.4,6.3-11.6,5.4l-0.3-0.1c-8.1-2.3-16.4-4.5-24.4-6.6c-11.2-3-22.8-6.1-34.2-9.4
			c-3.8-1.1-5.2-0.8-7.4,1.5c-15.2,15.7-27.8,28.3-39.6,39.8c-4.1,4-5,7.3-3.4,12.7c3.8,12.9,7.3,26,10.6,38.7
			c1.4,5.2,2.8,10.3,4.1,15.5c0.4,1.3,0.7,2.6,0.9,3.2l0.2,0.8c0.2,2.2,1,9.1-6.5,10.2c-0.8,0.1-1.6,0.2-2.3,0.2c-4.2,0-6.8-2-7.8-6
			l-4.7-17.8c-4.6-17.4-9.1-34.8-13.6-52.3c-1.3-5.2,2.1-8.3,4.1-10.2c0.3-0.3,0.6-0.6,0.9-0.9c8.5-8.6,17.1-17.3,25.5-25.7
			c8.1-8.1,16.5-16.6,24.7-24.9c4.7-4.7,9.9-3.3,12.7-2.5c21.5,5.9,43,11.8,64.4,17.8c0.4,0.1,0.7,0.2,1.1,0.3
			c2,0.5,4.8,1.1,6.3,3.7C431.7,310.6,431.9,312.8,431.1,315.5L431.1,315.5z"/>
	</g>
	<g>
		<path class="st0" d="M202.6,161.5l-6,5.9c-14.4,14.3-29.3,29-43.8,43.7c-2.3,2.3-4.8,3.5-7.6,3.5c-1.2,0-2.4-0.2-3.8-0.6
			c-20.5-5.8-43.7-12.3-66.3-18.1c-2.6-0.7-5.1-1.6-6.5-3.9c-1.3-2.3-0.9-5-0.4-7c0.7-2.5,1.8-4.2,3.5-5.2c2.4-1.4,4.8-0.6,6.8-0.1
			c0.3,0.1,0.6,0.2,0.9,0.3c6.9,1.9,14,3.8,20.8,5.6c12.1,3.2,24.6,6.5,36.9,10.1c5.1,1.5,7.6,0.9,10.9-2.5
			c7.5-7.9,15.4-15.8,23-23.4c5.2-5.2,10.5-10.5,15.7-15.9c0.6-0.6,1.2-1.2,1.8-1.7c0.8-0.7,2.2-2,2.4-2.5l-0.2-0.5l-3.2-12
			c-4-15-7.8-29.3-11.6-43.7c0-0.1-0.2-0.6-0.4-0.8c-0.6-1.1-1.5-2.8-0.9-4.8c0.1-0.4-0.4-1.7-0.6-2.4c-0.7-2.2-1.7-5.1-0.2-7.8
			c1.1-1.9,3-3.2,6-3.8c3.2-0.7,5.6-0.4,7.6,1c2.8,2.1,3.2,5.7,3.4,8.3c0.1,0.9,0.2,1.8,0.3,2.4c2.7,9.9,5.3,19.9,7.9,29.7
			c2.6,10,5.3,20.3,8.1,30.5C208.8,151.6,207.4,156.7,202.6,161.5L202.6,161.5z"/>
	</g>
</g>
</svg>
