<?xml version="1.0" encoding="utf-8"?>
<!-- Generator: Adobe Illustrator 22.0.1, SVG Export Plug-In . SVG Version: 6.00 Build 0)  -->
<svg version="1.1" id="Layer_1" xmlns="http://www.w3.org/2000/svg" xmlns:xlink="http://www.w3.org/1999/xlink" x="0px" y="0px"
	 viewBox="0 0 539.1 152.6" style="enable-background:new 0 0 539.1 152.6;" xml:space="preserve">
<style type="text/css">
	.st0{fill:#FFFFFF;}
</style>
<g>
	<g>
		<path class="st0" d="M280.9,45.7c0,4.3-3.5,7.9-7.8,7.9c-3.2,0-6-2-7.1-4.8l-0.1,0c-2.3-3.9-5-7.5-8.1-10.7
			c-4.9-4.9-10.6-8.8-17.2-11.7c-6.6-2.9-13.6-4.3-21-4.3c-7.4,0-14.4,1.4-21,4.3c-6.6,2.9-12.4,6.8-17.3,11.7
			c-4.9,4.9-8.8,10.8-11.7,17.4c-2.8,6.7-4.2,13.8-4.2,21.3h0c0,0.2,0,0.3,0,0.5c0,4.3-3.5,7.9-7.8,7.9c-4.3,0-7.8-3.5-7.8-7.9
			c0-0.2,0-0.4,0.1-0.5h-0.1c0-9.6,1.8-18.8,5.5-27.3c3.6-8.6,8.6-16,14.9-22.4c6.3-6.4,13.7-11.4,22.2-15.1
			c8.5-3.7,17.6-5.5,27.2-5.5c9.5,0,18.6,1.8,27,5.5c8.5,3.7,15.9,8.7,22.2,15.1c4.2,4.2,7.7,8.9,10.7,14c0.2,0.3,0.4,0.7,0.6,1
			c0.1,0.2,0.2,0.4,0.3,0.5l0,0C280.7,43.6,280.9,44.6,280.9,45.7L280.9,45.7z"/>
	</g>
	<g>
		<path class="st0" d="M283.7,104.3c-3.7,8.6-8.6,16.1-14.9,22.4c-6.3,6.4-13.7,11.4-22.2,15.1c-8.5,3.7-17.5,5.5-27,5.5
			c-9.7,0-18.7-1.8-27.2-5.5c-8.5-3.7-15.9-8.7-22.2-15.1c-4.5-4.6-8.4-9.8-11.5-15.5l0.1,0c-0.4-0.9-0.6-2-0.6-3.1
			c0-4.3,3.5-7.9,7.8-7.9c3.2,0,6,2,7.2,4.8l0.1,0c2.3,3.8,4.9,7.4,8.1,10.5c4.9,5,10.7,8.9,17.3,11.8c6.6,2.9,13.6,4.3,21,4.3
			c7.4,0,14.4-1.4,21-4.3c6.6-2.9,12.3-6.8,17.2-11.8c4.9-5,8.8-10.8,11.6-17.5c2.8-6.7,4.2-13.7,4.2-21.2c0,0,0,0,0,0
			c0-4.3,3.5-7.9,7.8-7.9c4.3,0,7.8,3.5,7.8,7.9C289.2,86.6,287.4,95.7,283.7,104.3L283.7,104.3z"/>
	</g>
	<g>
		<path class="st0" d="M120.2,40.7c-2.1,0-4-0.8-5.5-2.3c-5.3-5.4-11.3-9.4-17.9-12.2c-6.6-2.7-13.6-4.1-20.9-4.1
			c-7.7,0-14.8,1.4-21.5,4.2c-6.7,2.8-12.5,6.6-17.4,11.4c-4.9,4.8-8.8,10.5-11.7,17.1c-2.8,6.6-4.2,13.6-4.2,21.3
			c0,7.6,1.4,14.8,4.3,21.5c2.9,6.7,6.8,12.6,11.8,17.6c4.9,5,10.8,9,17.4,11.9c6.7,2.9,13.8,4.4,21.3,4.4c7.3,0,14.3-1.4,20.9-4.1
			c6.6-2.7,12.6-6.7,17.9-12c1.5-1.7,3.4-2.5,5.5-2.5c2.1,0,3.9,0.8,5.5,2.5c1.7,1.5,2.5,3.4,2.5,5.5c0,2.1-0.8,4-2.5,5.5
			c-6.7,6.8-14.3,12-22.8,15.5c-8.5,3.6-17.4,5.4-26.9,5.4c-9.8,0-18.9-1.9-27.5-5.6c-8.5-3.8-16-8.8-22.4-15.3
			c-6.4-6.4-11.4-14-15.1-22.6C7.3,95.2,5.4,86,5.4,76.1c0-9.8,1.8-18.9,5.6-27.4c3.7-8.5,8.7-15.9,15.1-22.2
			c6.4-6.3,13.8-11.2,22.4-14.7C57,8.2,66.2,6.4,76,6.4c9.4,0,18.4,1.8,26.9,5.3c8.5,3.5,16.1,8.7,22.8,15.4
			c1.7,1.7,2.5,3.6,2.5,5.7c0,2.1-0.8,4-2.5,5.5C124.1,39.9,122.3,40.7,120.2,40.7L120.2,40.7z"/>
	</g>
	<g>
		<path class="st0" d="M417.2,16l-50.4,126.3c-0.6,1.6-1.5,2.8-2.8,3.7c-1.3,0.9-2.8,1.3-4.4,1.3c-1.7,0-3.1-0.4-4.4-1.3
			c-1.3-0.9-2.2-2.1-2.8-3.7l-34.6-86l0,0l-0.4-0.9c-0.4-0.8-0.5-1.8-0.5-3c0-2.1,0.8-4,2.3-5.5c1.5-1.5,3.4-2.3,5.5-2.3
			c1.7,0,3.2,0.4,4.5,1.3c1.4,0.9,2.3,2.1,2.9,3.7l5.8,14.6l-0.1,0l21.7,54l43.1-108.1c0.6-1.6,1.5-2.8,2.8-3.7
			c1.3-0.9,2.8-1.3,4.4-1.3c2.2,0,4.1,0.8,5.7,2.3c1.5,1.6,2.3,3.4,2.3,5.5C417.9,14.2,417.7,15.2,417.2,16L417.2,16z"/>
	</g>
	<g>
		<path class="st0" d="M533,142.4c-0.8,2-2.2,3.4-4.2,4.3c-0.9,0.5-2,0.7-3,0.7c-1.5,0-3-0.4-4.3-1.2c-1.4-0.8-2.3-2-2.9-3.6
			l-14-33.2h-64.2l-14,33.2c-0.8,2-2.2,3.5-4.2,4.3c-2,0.8-4,0.8-6-0.2c-2-0.8-3.4-2.3-4.3-4.3c-0.8-2-0.8-4.1,0.2-6.1L428,98.2
			l20.9-49.5l0.1,0c1-3.3,3.9-5.6,7.5-5.6c4.3,0,7.9,3.6,7.9,7.9c0,0.9-0.2,1.7-0.4,2.4l0.1,0l-16.9,39.8h50.7l-9.7-23.1l-15.5-36.7
			c0-0.1-0.1-0.1-0.1-0.2c-2.4-5.7-4.8-11.3-7.2-17c-0.1-0.2-0.1-0.3-0.2-0.5c-0.3-0.9-0.5-1.8-0.5-2.8c0-0.8,0.2-1.6,0.4-2.3
			c0.2-0.6,0.4-1.1,0.7-1.7c0.2-0.3,0.4-0.6,0.6-0.9c0.1-0.2,0.3-0.3,0.4-0.5c0.3-0.4,0.7-0.7,1.1-1c0.1-0.1,0.2-0.2,0.4-0.3
			c0.8-0.5,1.6-0.8,2.5-1c0.1,0,0.3-0.1,0.4-0.1c0.4-0.1,0.7-0.1,1.1-0.1c0.1,0,0.2,0,0.3,0c0,0,0,0,0.1,0c0,0,0.1,0,0.1,0
			c1.5,0,3,0.4,4.3,1.3c0.9,0.5,1.5,1.3,2.1,2.2c0.1,0.1,0.2,0.3,0.3,0.4c0.2,0.3,0.4,0.6,0.5,0.9c9,21.2,17.9,42.3,26.7,63.2
			c8.8,20.9,17.7,41.9,26.7,63.2C533.8,138.3,533.8,140.3,533,142.4L533,142.4z"/>
	</g>
</g>
</svg>
